<svg width="20" height="20" viewBox="0 0 20 20" fill="none" xmlns="http://www.w3.org/2000/svg">
<path d="M8.49372 14.7892H2.70642" stroke="white" stroke-width="1.5" stroke-linecap="round" stroke-linejoin="round"/>
<path fill-rule="evenodd" clip-rule="evenodd" d="M17.2943 14.7891C17.2943 16.0616 16.2627 17.0931 14.9903 17.0931C13.7178 17.0931 12.6863 16.0616 12.6863 14.7891C12.6863 13.5157 13.7178 12.4851 14.9903 12.4851C16.2627 12.4851 17.2943 13.5157 17.2943 14.7891Z" stroke="white" stroke-width="1.5" stroke-linecap="round" stroke-linejoin="round"/>
<path d="M11.5062 5.40931H17.2944" stroke="white" stroke-width="1.5" stroke-linecap="round" stroke-linejoin="round"/>
<path fill-rule="evenodd" clip-rule="evenodd" d="M2.70605 5.40947C2.70605 6.68288 3.73758 7.71347 5.01005 7.71347C6.28253 7.71347 7.31406 6.68288 7.31406 5.40947C7.31406 4.137 6.28253 3.10547 5.01005 3.10547C3.73758 3.10547 2.70605 4.137 2.70605 5.40947Z" stroke="white" stroke-width="1.5" stroke-linecap="round" stroke-linejoin="round"/>
</svg>
