<svg width="44" height="44" viewBox="0 0 44 44" fill="none" xmlns="http://www.w3.org/2000/svg">
<ellipse cx="21.4386" cy="15.7041" rx="6.37071" ry="6.37071" stroke="#C4CAD3" stroke-width="2" stroke-linecap="round" stroke-linejoin="round"/>
<path fill-rule="evenodd" clip-rule="evenodd" d="M11.3334 30.9352C11.3316 30.4873 11.4318 30.0449 11.6263 29.6415C12.2365 28.4211 13.9573 27.7742 15.3852 27.4813C16.415 27.2615 17.4591 27.1147 18.5096 27.042C20.4545 26.8711 22.4106 26.8711 24.3555 27.042C25.4059 27.1156 26.4499 27.2624 27.4798 27.4813C28.9077 27.7742 30.6286 28.36 31.2388 29.6415C31.6298 30.4639 31.6298 31.4186 31.2388 32.241C30.6286 33.5225 28.9077 34.1083 27.4798 34.389C26.4512 34.6179 25.4068 34.7688 24.3555 34.8406C22.7725 34.9748 21.1821 34.9992 19.5958 34.9138C19.2296 34.9138 18.8757 34.9138 18.5096 34.8406C17.4622 34.7697 16.4218 34.6187 15.3974 34.389C13.9573 34.1083 12.2487 33.5225 11.6263 32.241C11.4328 31.8329 11.3327 31.3868 11.3334 30.9352Z" stroke="#C4CAD3" stroke-width="2" stroke-linecap="round" stroke-linejoin="round"/>
</svg>
