<svg width="32" height="32" viewBox="0 0 32 32" fill="none" xmlns="http://www.w3.org/2000/svg">
<path fill-rule="evenodd" clip-rule="evenodd" d="M21.714 2.66663H26.0695C27.8715 2.66663 29.3333 4.14116 29.3333 5.9602V10.3521C29.3333 12.1698 27.8715 13.6457 26.0695 13.6457H21.714C19.9106 13.6457 18.4488 12.1698 18.4488 10.3521V5.9602C18.4488 4.14116 19.9106 2.66663 21.714 2.66663Z" stroke="#0F2851" stroke-width="1.5" stroke-linecap="round" stroke-linejoin="round"/>
<path fill-rule="evenodd" clip-rule="evenodd" d="M5.93191 2.66663H10.286C12.0894 2.66663 13.5512 4.14116 13.5512 5.9602V10.3521C13.5512 12.1698 12.0894 13.6457 10.286 13.6457H5.93191C4.12853 13.6457 2.66669 12.1698 2.66669 10.3521V5.9602C2.66669 4.14116 4.12853 2.66663 5.93191 2.66663Z" stroke="#0F2851" stroke-width="1.5" stroke-linecap="round" stroke-linejoin="round"/>
<path fill-rule="evenodd" clip-rule="evenodd" d="M5.93191 18.3542H10.286C12.0894 18.3542 13.5512 19.8288 13.5512 21.6492V26.0397C13.5512 27.8588 12.0894 29.3333 10.286 29.3333H5.93191C4.12853 29.3333 2.66669 27.8588 2.66669 26.0397V21.6492C2.66669 19.8288 4.12853 18.3542 5.93191 18.3542Z" stroke="#0F2851" stroke-width="1.5" stroke-linecap="round" stroke-linejoin="round"/>
<path fill-rule="evenodd" clip-rule="evenodd" d="M21.714 18.3542H26.0695C27.8715 18.3542 29.3333 19.8288 29.3333 21.6492V26.0397C29.3333 27.8588 27.8715 29.3333 26.0695 29.3333H21.714C19.9106 29.3333 18.4488 27.8588 18.4488 26.0397V21.6492C18.4488 19.8288 19.9106 18.3542 21.714 18.3542Z" stroke="#0F2851" stroke-width="1.5" stroke-linecap="round" stroke-linejoin="round"/>
</svg>
