<svg width="44" height="44" viewBox="0 0 44 44" fill="none" xmlns="http://www.w3.org/2000/svg">
<path d="M18.6677 32.2458V28.6678C18.6677 27.7611 19.405 27.0245 20.3182 27.0188H23.6714C24.5887 27.0188 25.3323 27.7571 25.3323 28.6678V28.6678V32.2354C25.3323 33.0218 25.9714 33.6609 26.7634 33.6666H29.0511C30.1196 33.6694 31.1452 33.2499 31.9017 32.5008C32.6582 31.7517 33.0833 30.7346 33.0833 29.6738V19.5102C33.0833 18.6533 32.7008 17.8405 32.0387 17.2908L24.2668 11.12C22.9083 10.0407 20.9679 10.0755 19.6496 11.203L12.0449 17.2908C11.3515 17.8243 10.9371 18.6395 10.9167 19.5102V29.6634C10.9167 31.8743 12.722 33.6666 14.9489 33.6666H17.1843C17.5657 33.6694 17.9324 33.5209 18.2031 33.2542C18.4737 32.9874 18.6259 32.6244 18.6259 32.2458H18.6677Z" stroke="#C4CAD3" stroke-width="1.5"/>
</svg>
