<svg width="69" height="20" viewBox="0 0 69 20" fill="none" xmlns="http://www.w3.org/2000/svg">
<path d="M1.125 19H12.9205V15.1818H5.86364V1.54545H1.125V19ZM30.5853 10.2727C30.5853 4.44318 26.8353 1.30682 22.0967 1.30682C17.324 1.30682 13.6081 4.44318 13.6081 10.2727C13.6081 16.0682 17.324 19.2386 22.0967 19.2386C26.8353 19.2386 30.5853 16.1023 30.5853 10.2727ZM25.7103 10.2727C25.7103 13.4091 24.449 15.1136 22.0967 15.1136C19.7444 15.1136 18.4831 13.4091 18.4831 10.2727C18.4831 7.13636 19.7444 5.43182 22.0967 5.43182C24.449 5.43182 25.7103 7.13636 25.7103 10.2727ZM43.633 7.30682H48.4228C48.0563 3.80398 44.8774 1.30682 40.7524 1.30682C36.0478 1.30682 32.2296 4.54545 32.2296 10.3068C32.2296 15.8295 35.6899 19.2386 40.7864 19.2386C45.3546 19.2386 48.6274 16.4432 48.6274 11.6705V9.25H40.8887V12.625H44.0592C44.0166 14.142 42.9427 15.1136 40.8205 15.1136C38.366 15.1136 37.1046 13.3068 37.1046 10.2386C37.1046 7.21307 38.4683 5.43182 40.8546 5.43182C42.3376 5.43182 43.3433 6.11364 43.633 7.30682ZM67.266 10.2727C67.266 4.44318 63.516 1.30682 58.7773 1.30682C54.0046 1.30682 50.2887 4.44318 50.2887 10.2727C50.2887 16.0682 54.0046 19.2386 58.7773 19.2386C63.516 19.2386 67.266 16.1023 67.266 10.2727ZM62.391 10.2727C62.391 13.4091 61.1296 15.1136 58.7773 15.1136C56.4251 15.1136 55.1637 13.4091 55.1637 10.2727C55.1637 7.13636 56.4251 5.43182 58.7773 5.43182C61.1296 5.43182 62.391 7.13636 62.391 10.2727Z" fill="#2A9DF4"/>
</svg>
