<svg width="45" height="44" viewBox="0 0 45 44" fill="none" xmlns="http://www.w3.org/2000/svg">
<path d="M24.8096 27.6527L24.1319 19.9817C24.0993 19.6117 23.9195 19.2698 23.6323 19.0312C23.3451 18.7925 22.9738 18.6766 22.6003 18.7089V18.7089C22.2268 18.7413 21.8815 18.9193 21.6405 19.2037C21.3995 19.4882 21.2824 19.8558 21.3151 20.2257L21.7464 25.1073" stroke="#C4CAD3" stroke-width="1.5" stroke-linecap="round" stroke-linejoin="round"/>
<path d="M21.7463 25.1072L21.0686 17.4361C21.0359 17.0662 20.8562 16.7243 20.5689 16.4856C20.2817 16.247 19.9105 16.131 19.537 16.1634C19.1634 16.1958 18.8182 16.3738 18.5772 16.6582C18.3361 16.9427 18.2191 17.3103 18.2518 17.6802L18.8679 24.6539" stroke="#C4CAD3" stroke-width="1.5" stroke-linecap="round" stroke-linejoin="round"/>
<path d="M16.055 24.9415L15.4967 18.6216C15.464 18.2517 15.2843 17.9098 14.9971 17.6711C14.7098 17.4324 14.3386 17.3165 13.9651 17.3489V17.3489C13.5916 17.3812 13.2463 17.5592 13.0053 17.8437C12.7643 18.1281 12.6472 18.4957 12.6799 18.8656L13.5424 28.6288" stroke="#C4CAD3" stroke-width="1.5" stroke-linecap="round" stroke-linejoin="round"/>
<path d="M18.8683 24.6541L18.129 16.2856C18.0963 15.9157 17.9166 15.5738 17.6293 15.3351C17.3421 15.0964 16.9709 14.9805 16.5974 15.0129C16.2238 15.0453 15.8786 15.2232 15.6376 15.5077C15.3965 15.7921 15.2795 16.1598 15.3122 16.5297L16.0515 24.8981" stroke="#C4CAD3" stroke-width="1.5" stroke-linecap="round" stroke-linejoin="round"/>
<path d="M24.806 27.6431C25.2548 32.7604 22.6622 35.5604 18.7893 35.8984C14.9164 36.2364 13.1934 34.6475 12.1154 32.6158L9.24687 26.5414C8.88476 25.7802 8.95368 25.0389 9.6026 24.5954C10.2519 24.1513 11.1666 24.2709 11.5973 24.9343L13.5394 28.6264" stroke="#C4CAD3" stroke-width="1.5" stroke-linecap="round" stroke-linejoin="round"/>
<path d="M20.4666 16.2529C20.5087 15.884 20.1857 14.8454 21.0084 14.1964C21.3017 13.9649 21.6757 13.8583 22.0483 13.9C22.4209 13.9417 22.7615 14.1282 22.9952 14.4186C23.2289 14.709 23.3366 15.0794 23.2945 15.4483L23.2188 18.4224" stroke="#C4CAD3" stroke-width="1.5" stroke-linecap="round" stroke-linejoin="round"/>
<path d="M23.24 18.4228L23.612 12.6657C23.6541 12.2967 23.8425 11.9594 24.1357 11.7279C24.4289 11.4965 24.8029 11.3899 25.1755 11.4316C25.5481 11.4732 25.8887 11.6598 26.1224 11.9502C26.3561 12.2405 26.4638 12.611 26.4217 12.9799L25.6284 19.9361" stroke="#C4CAD3" stroke-width="1.5" stroke-linecap="round" stroke-linejoin="round"/>
<path d="M28.4334 20.2938L29.1524 13.9899C29.1945 13.6209 29.3828 13.2836 29.676 13.0521C29.9693 12.8207 30.3433 12.7141 30.7159 12.7558V12.7558C31.0885 12.7974 31.4291 12.984 31.6628 13.2744C31.8965 13.5647 32.0042 13.9351 31.9621 14.3041L30.8514 24.0427" stroke="#C4CAD3" stroke-width="1.5" stroke-linecap="round" stroke-linejoin="round"/>
<path d="M25.6284 19.9364L26.5804 11.589C26.6225 11.22 26.8109 10.8827 27.1041 10.6513C27.3973 10.4198 27.7714 10.3132 28.1439 10.3549C28.5165 10.3966 28.8571 10.5831 29.0908 10.8735C29.3246 11.1639 29.4322 11.5343 29.3901 11.9033L28.4381 20.2506" stroke="#C4CAD3" stroke-width="1.5" stroke-linecap="round" stroke-linejoin="round"/>
<path d="M25.4126 31.184C29.2759 31.6161 31.04 30.0698 32.1708 28.0652L35.1988 22.0635C35.5807 21.3115 35.5311 20.5689 34.8939 20.1097C34.2563 19.65 33.3386 19.7473 32.8907 20.3999L30.851 24.0429" stroke="#C4CAD3" stroke-width="1.5" stroke-linecap="round" stroke-linejoin="round"/>
<path d="M11.6225 9.48065L13.6412 10.9787" stroke="#C4CAD3" stroke-width="1.5" stroke-linecap="round" stroke-linejoin="round"/>
<path d="M14.0421 7.33334L15.553 9.83915" stroke="#C4CAD3" stroke-width="1.5" stroke-linecap="round"/>
<path d="M17.5677 7.33334V9.33799" stroke="#C4CAD3" stroke-width="1.5" stroke-linecap="round"/>
</svg>
