<svg width="35" height="35" viewBox="0 0 35 35" fill="none" xmlns="http://www.w3.org/2000/svg">
<path d="M7.29169 24.7917H5.83335C5.05981 24.7917 4.31794 24.4844 3.77096 23.9374C3.22398 23.3904 2.91669 22.6485 2.91669 21.875V7.29167C2.91669 6.51812 3.22398 5.77625 3.77096 5.22927C4.31794 4.68229 5.05981 4.375 5.83335 4.375H29.1667C29.9402 4.375 30.6821 4.68229 31.2291 5.22927C31.7761 5.77625 32.0834 6.51812 32.0834 7.29167V21.875C32.0834 22.6485 31.7761 23.3904 31.2291 23.9374C30.6821 24.4844 29.9402 24.7917 29.1667 24.7917H27.7084" stroke="white" stroke-width="3" stroke-linecap="round" stroke-linejoin="round"/>
<path d="M17.5 21.875L24.7916 30.625H10.2083L17.5 21.875Z" stroke="#C7C9D0" stroke-width="2" stroke-linecap="round" stroke-linejoin="round"/>
</svg>
