<svg width="32" height="32" viewBox="0 0 32 32" fill="none" xmlns="http://www.w3.org/2000/svg">
<path fill-rule="evenodd" clip-rule="evenodd" d="M1.7736 4.74765C2.27306 3.91907 5.02661 0.911209 6.98879 1.00201C7.57582 1.05228 8.09475 1.40576 8.51637 1.81762H8.51799C9.48449 2.76457 12.2575 6.33833 12.4132 7.0907C12.7975 8.93596 10.5969 9.99966 11.2699 11.8595C12.9856 16.0575 15.9419 19.0135 20.1419 20.7274C22.0003 21.402 23.0641 19.2032 24.9095 19.5859C25.662 19.7432 29.2377 22.5143 30.1831 23.4823C30.5934 23.9023 30.9501 24.4228 30.9988 25.0098C31.0717 27.0772 27.8771 29.8678 27.2544 30.2245C25.7852 31.2768 23.8684 31.2574 21.5316 30.171C15.011 27.4582 4.59038 17.2347 1.82711 10.4683C0.769804 8.14467 0.698452 6.2151 1.7736 4.74765Z" stroke="white" stroke-width="1.5" stroke-linecap="round" stroke-linejoin="round"/>
<path opacity="0.4" d="M20.0506 1.39474C25.8959 2.04368 30.5112 6.65421 31.168 12.4979" stroke="white" stroke-width="1.5" stroke-linecap="round" stroke-linejoin="round"/>
<path opacity="0.4" d="M20.0506 6.98895C22.8454 7.53368 25.029 9.71737 25.5738 12.5121" stroke="white" stroke-width="1.5" stroke-linecap="round" stroke-linejoin="round"/>
</svg>
