<svg xmlns="http://www.w3.org/2000/svg" viewBox="0 0 158.73 50"
><defs><style>.cls-1{font-size:34.28px;font-family:Poppins-Bold, Poppins;}.cls-2{font-weight:700;}.cls-3{font-family:Poppins-Regular, Poppins;}</style></defs><title>Asset 3</title><g id="Layer_2"><g id="Layer_1-2"><path d="M.5,15.45V5.93H12.24c1.82,0,3.35,2.18,3.35,4.76a5.77,5.77,0,0,1-1,3.42,2.89,2.89,0,0,1-2.32,1.34Z"/><path d="M12.24,6.43c1.55,0,2.85,2,2.85,4.26a5.46,5.46,0,0,1-.93,3.13A2.45,2.45,0,0,1,12.24,15H1V6.43H12.24m0-1H0V16H12.24A3.41,3.41,0,0,0,15,14.41a6.32,6.32,0,0,0,1.13-3.72c0-2.89-1.73-5.26-3.85-5.26Z"/><path d="M.5,28.64V19.12H12.24c1.82,0,3.35,2.18,3.35,4.76a5.8,5.8,0,0,1-1,3.42,2.89,2.89,0,0,1-2.32,1.34Z"/><path d="M12.24,19.62c1.55,0,2.85,1.95,2.85,4.26A5.46,5.46,0,0,1,14.16,27a2.45,2.45,0,0,1-1.92,1.13H1V19.62H12.24m0-1H0V29.14H12.24A3.41,3.41,0,0,0,15,27.6a6.34,6.34,0,0,0,1.13-3.72c0-2.9-1.73-5.26-3.85-5.26Z"/><text class="cls-1" transform="translate(17.87 29.23)"><tspan class="cls-2">Bills</tspan><tspan class="cls-3" x="72.06" y="0">Hub</tspan></text></g></g></svg>