<svg width="156" height="23" viewBox="0 0 156 23" fill="none" xmlns="http://www.w3.org/2000/svg">
<path d="M14.7899 17.848C14.1867 19.0685 13.3386 20.0726 12.2454 20.86C11.171 21.6278 9.82336 22.0117 8.2024 22.0117C7.12805 22.0117 6.13851 21.8247 5.23379 21.4506C4.34792 21.0569 3.57514 20.5155 2.91545 19.8265C2.27461 19.1374 1.76571 18.3303 1.38874 17.405C1.03062 16.46 0.851562 15.4265 0.851562 14.3043C0.851562 13.1822 1.03062 12.1486 1.38874 11.2037C1.76571 10.2587 2.27461 9.45154 2.91545 8.78219C3.57514 8.09315 4.34792 7.56161 5.23379 7.18756C6.13851 6.79382 7.12805 6.59695 8.2024 6.59695C9.80451 6.59695 11.1522 6.98085 12.2454 7.74863C13.3386 8.51642 14.1396 9.5106 14.6485 10.7312L11.2558 12.2077C10.9354 11.5383 10.5207 11.0363 10.0118 10.7017C9.52178 10.3473 8.89979 10.1701 8.14586 10.1701C7.6558 10.1701 7.19402 10.2685 6.76051 10.4654C6.327 10.6623 5.94061 10.9379 5.60134 11.2923C5.28091 11.6466 5.02646 12.0797 4.83798 12.5916C4.6495 13.1034 4.55525 13.6744 4.55525 14.3043C4.55525 14.9343 4.6495 15.5052 4.83798 16.0171C5.02646 16.5289 5.28091 16.9621 5.60134 17.3164C5.94061 17.6708 6.327 17.9464 6.76051 18.1433C7.19402 18.3401 7.6558 18.4386 8.14586 18.4386C8.91864 18.4386 9.5689 18.2614 10.0967 17.907C10.6433 17.533 11.0768 17.0014 11.3972 16.3124L14.7899 17.848Z" fill="#2E566F"/>
<path d="M23.1879 6.59695C24.2623 6.59695 25.2424 6.79382 26.1282 7.18756C27.033 7.56161 27.8057 8.09315 28.4466 8.78219C29.1063 9.45154 29.6152 10.2587 29.9733 11.2037C30.3503 12.1486 30.5387 13.1822 30.5387 14.3043C30.5387 15.4265 30.3503 16.46 29.9733 17.405C29.6152 18.35 29.1063 19.167 28.4466 19.856C27.8057 20.5254 27.033 21.0569 26.1282 21.4506C25.2424 21.8247 24.2623 22.0117 23.1879 22.0117C22.1136 22.0117 21.124 21.8247 20.2193 21.4506C19.3334 21.0569 18.5606 20.5254 17.901 19.856C17.2601 19.167 16.7512 18.35 16.3742 17.405C16.0161 16.46 15.8371 15.4265 15.8371 14.3043C15.8371 13.1822 16.0161 12.1486 16.3742 11.2037C16.7512 10.2587 17.2601 9.45154 17.901 8.78219C18.5606 8.09315 19.3334 7.56161 20.2193 7.18756C21.124 6.79382 22.1136 6.59695 23.1879 6.59695ZM23.1879 18.4386C23.6591 18.4386 24.1115 18.35 24.545 18.1728C24.9973 17.9759 25.3932 17.7003 25.7324 17.3459C26.0717 16.9916 26.3356 16.5585 26.5241 16.0466C26.7314 15.5348 26.8351 14.954 26.8351 14.3043C26.8351 13.6547 26.7314 13.0739 26.5241 12.5621C26.3356 12.0502 26.0717 11.6171 25.7324 11.2627C25.3932 10.9084 24.9973 10.6426 24.545 10.4654C24.1115 10.2685 23.6591 10.1701 23.1879 10.1701C22.6979 10.1701 22.2361 10.2685 21.8026 10.4654C21.369 10.6426 20.9827 10.9084 20.6434 11.2627C20.3041 11.6171 20.0308 12.0502 19.8235 12.5621C19.635 13.0739 19.5408 13.6547 19.5408 14.3043C19.5408 14.954 19.635 15.5348 19.8235 16.0466C20.0308 16.5585 20.3041 16.9916 20.6434 17.3459C20.9827 17.7003 21.369 17.9759 21.8026 18.1728C22.2361 18.35 22.6979 18.4386 23.1879 18.4386Z" fill="#2E566F"/>
<path d="M35.8372 8.95937H36.0634C36.4969 8.23096 37.0812 7.66004 37.8163 7.24662C38.5513 6.81351 39.3901 6.59695 40.3325 6.59695C41.1995 6.59695 41.9629 6.7446 42.6226 7.03991C43.2823 7.33521 43.8194 7.75848 44.2341 8.30971C44.6676 8.84125 44.988 9.49091 45.1954 10.2587C45.4215 11.0068 45.5346 11.8435 45.5346 12.7688V21.5392H41.8309V13.2412C41.8309 12.1978 41.6048 11.4301 41.1524 10.9379C40.7189 10.426 40.078 10.1701 39.2299 10.1701C38.721 10.1701 38.2686 10.2882 37.8728 10.5245C37.4958 10.741 37.166 11.0462 36.8833 11.4399C36.6194 11.814 36.4121 12.2668 36.2613 12.7983C36.1293 13.3102 36.0634 13.8614 36.0634 14.452V21.5392H32.3597V7.06944H35.8372V8.95937Z" fill="#2E566F"/>
<path d="M51.789 8.95937H52.0152C52.4487 8.23096 53.033 7.66004 53.7681 7.24662C54.5032 6.81351 55.3419 6.59695 56.2844 6.59695C57.1514 6.59695 57.9147 6.7446 58.5744 7.03991C59.2341 7.33521 59.7713 7.75848 60.1859 8.30971C60.6195 8.84125 60.9399 9.49091 61.1472 10.2587C61.3734 11.0068 61.4865 11.8435 61.4865 12.7688V21.5392H57.7828V13.2412C57.7828 12.1978 57.5566 11.4301 57.1043 10.9379C56.6707 10.426 56.0299 10.1701 55.1817 10.1701C54.6728 10.1701 54.2205 10.2882 53.8246 10.5245C53.4477 10.741 53.1178 11.0462 52.8351 11.4399C52.5712 11.814 52.3639 12.2668 52.2131 12.7983C52.0812 13.3102 52.0152 13.8614 52.0152 14.452V21.5392H48.3115V7.06944H51.789V8.95937Z" fill="#2E566F"/>
<path d="M77.3818 18.0547C76.7409 19.2359 75.8739 20.1907 74.7807 20.9191C73.7064 21.6475 72.387 22.0117 70.8226 22.0117C69.7671 22.0117 68.787 21.8247 67.8822 21.4506C66.9964 21.0569 66.2236 20.5155 65.5639 19.8265C64.9042 19.1374 64.3859 18.3303 64.0089 17.405C63.6508 16.46 63.4717 15.4265 63.4717 14.3043C63.4717 13.2609 63.6508 12.2766 64.0089 11.3513C64.367 10.4064 64.8665 9.58935 65.5074 8.90031C66.1482 8.19158 66.9021 7.63051 67.7691 7.21709C68.655 6.80366 69.6257 6.59695 70.6812 6.59695C71.7933 6.59695 72.7828 6.79382 73.6498 7.18756C74.5168 7.56161 75.2425 8.09315 75.8268 8.78219C76.4111 9.45154 76.854 10.2489 77.1556 11.1741C77.4572 12.0994 77.608 13.1034 77.608 14.1862C77.608 14.324 77.608 14.4421 77.608 14.5406C77.5891 14.6587 77.5797 14.767 77.5797 14.8654C77.5608 14.9638 77.5514 15.0721 77.5514 15.1902H67.1189C67.1943 15.7808 67.3451 16.2927 67.5713 16.7258C67.8163 17.1392 68.1084 17.4936 68.4477 17.7889C68.8058 18.0645 69.1922 18.2712 69.6069 18.409C70.0215 18.5272 70.4456 18.5862 70.8791 18.5862C71.7273 18.5862 72.4247 18.3893 72.9713 17.9956C73.5367 17.5822 73.9797 17.0703 74.3001 16.46L77.3818 18.0547ZM74.0174 12.4439C73.9985 12.188 73.9137 11.9025 73.7629 11.5876C73.631 11.2726 73.4236 10.9773 73.1409 10.7017C72.877 10.426 72.5378 10.1996 72.1231 10.0225C71.7273 9.84528 71.2467 9.75668 70.6812 9.75668C69.8896 9.75668 69.1922 9.99293 68.5891 10.4654C67.9859 10.9379 67.5618 11.5974 67.3168 12.4439H74.0174Z" fill="#2E566F"/>
<path d="M92.9754 17.848C92.3722 19.0685 91.524 20.0726 90.4308 20.86C89.3565 21.6278 88.0089 22.0117 86.3879 22.0117C85.3135 22.0117 84.324 21.8247 83.4193 21.4506C82.5334 21.0569 81.7606 20.5155 81.1009 19.8265C80.4601 19.1374 79.9512 18.3303 79.5742 17.405C79.2161 16.46 79.037 15.4265 79.037 14.3043C79.037 13.1822 79.2161 12.1486 79.5742 11.2037C79.9512 10.2587 80.4601 9.45154 81.1009 8.78219C81.7606 8.09315 82.5334 7.56161 83.4193 7.18756C84.324 6.79382 85.3135 6.59695 86.3879 6.59695C87.99 6.59695 89.3376 6.98085 90.4308 7.74863C91.524 8.51642 92.3251 9.5106 92.834 10.7312L89.4413 12.2077C89.1209 11.5383 88.7062 11.0363 88.1973 10.7017C87.7073 10.3473 87.0853 10.1701 86.3313 10.1701C85.8413 10.1701 85.3795 10.2685 84.946 10.4654C84.5125 10.6623 84.1261 10.9379 83.7868 11.2923C83.4664 11.6466 83.212 12.0797 83.0235 12.5916C82.835 13.1034 82.7407 13.6744 82.7407 14.3043C82.7407 14.9343 82.835 15.5052 83.0235 16.0171C83.212 16.5289 83.4664 16.9621 83.7868 17.3164C84.1261 17.6708 84.5125 17.9464 84.946 18.1433C85.3795 18.3401 85.8413 18.4386 86.3313 18.4386C87.1041 18.4386 87.7544 18.2614 88.2821 17.907C88.8287 17.533 89.2623 17.0014 89.5827 16.3124L92.9754 17.848Z" fill="#2E566F"/>
<path d="M96.3409 10.3768H93.9095V7.06944H96.3409V2.63991H100.045V7.06944H103.437V10.3768H100.045V15.9876C100.045 16.3222 100.073 16.6372 100.129 16.9325C100.205 17.2081 100.337 17.4444 100.525 17.6412C100.789 17.9562 101.166 18.1137 101.656 18.1137C101.977 18.1137 102.231 18.0842 102.419 18.0251C102.608 17.9464 102.787 17.848 102.957 17.7298L104.003 21.1258C103.569 21.3424 103.098 21.4999 102.589 21.5983C102.099 21.7164 101.552 21.7755 100.949 21.7755C100.252 21.7755 99.6205 21.6672 99.0551 21.4506C98.5085 21.2144 98.0467 20.8994 97.6697 20.5057C96.7838 19.6198 96.3409 18.3598 96.3409 16.7258V10.3768Z" fill="#2E566F"/>
<path d="M108.081 4.97279C107.761 4.97279 107.45 4.91373 107.148 4.79561C106.865 4.6578 106.611 4.48062 106.385 4.26407C106.177 4.02783 106.008 3.76205 105.876 3.46675C105.763 3.17145 105.706 2.84662 105.706 2.49226C105.706 2.13789 105.763 1.81306 105.876 1.51776C106.008 1.22246 106.177 0.966529 106.385 0.749973C106.611 0.513732 106.865 0.336551 107.148 0.218429C107.45 0.0806222 107.761 0.0117188 108.081 0.0117188C108.741 0.0117188 109.306 0.257803 109.777 0.749973C110.249 1.22246 110.484 1.80322 110.484 2.49226C110.484 3.18129 110.249 3.7719 109.777 4.26407C109.306 4.73655 108.741 4.97279 108.081 4.97279ZM106.243 21.5392V7.06944H109.947V21.5392H106.243Z" fill="#2E566F"/>
<path d="M119.472 6.59695C120.547 6.59695 121.527 6.79382 122.413 7.18756C123.317 7.56161 124.09 8.09315 124.731 8.78219C125.391 9.45154 125.899 10.2587 126.258 11.2037C126.635 12.1486 126.823 13.1822 126.823 14.3043C126.823 15.4265 126.635 16.46 126.258 17.405C125.899 18.35 125.391 19.167 124.731 19.856C124.09 20.5254 123.317 21.0569 122.413 21.4506C121.527 21.8247 120.547 22.0117 119.472 22.0117C118.398 22.0117 117.408 21.8247 116.504 21.4506C115.618 21.0569 114.845 20.5254 114.185 19.856C113.544 19.167 113.035 18.35 112.659 17.405C112.3 16.46 112.121 15.4265 112.121 14.3043C112.121 13.1822 112.3 12.1486 112.659 11.2037C113.035 10.2587 113.544 9.45154 114.185 8.78219C114.845 8.09315 115.618 7.56161 116.504 7.18756C117.408 6.79382 118.398 6.59695 119.472 6.59695ZM119.472 18.4386C119.943 18.4386 120.396 18.35 120.829 18.1728C121.282 17.9759 121.677 17.7003 122.017 17.3459C122.356 16.9916 122.62 16.5585 122.808 16.0466C123.016 15.5348 123.119 14.954 123.119 14.3043C123.119 13.6547 123.016 13.0739 122.808 12.5621C122.62 12.0502 122.356 11.6171 122.017 11.2627C121.677 10.9084 121.282 10.6426 120.829 10.4654C120.396 10.2685 119.943 10.1701 119.472 10.1701C118.982 10.1701 118.52 10.2685 118.087 10.4654C117.653 10.6426 117.267 10.9084 116.928 11.2627C116.588 11.6171 116.315 12.0502 116.108 12.5621C115.919 13.0739 115.825 13.6547 115.825 14.3043C115.825 14.954 115.919 15.5348 116.108 16.0466C116.315 16.5585 116.588 16.9916 116.928 17.3459C117.267 17.7003 117.653 17.9759 118.087 18.1728C118.52 18.35 118.982 18.4386 119.472 18.4386Z" fill="#2E566F"/>
<path d="M132.121 8.95937H132.348C132.781 8.23096 133.365 7.66004 134.101 7.24662C134.836 6.81351 135.674 6.59695 136.617 6.59695C137.484 6.59695 138.247 6.7446 138.907 7.03991C139.567 7.33521 140.104 7.75848 140.518 8.30971C140.952 8.84125 141.272 9.49091 141.48 10.2587C141.706 11.0068 141.819 11.8435 141.819 12.7688V21.5392H138.115V13.2412C138.115 12.1978 137.889 11.4301 137.437 10.9379C137.003 10.426 136.362 10.1701 135.514 10.1701C135.005 10.1701 134.553 10.2882 134.157 10.5245C133.78 10.741 133.45 11.0462 133.168 11.4399C132.904 11.814 132.696 12.2668 132.546 12.7983C132.414 13.3102 132.348 13.8614 132.348 14.452V21.5392H128.644V7.06944H132.121V8.95937Z" fill="#2E566F"/>
<path d="M149.943 22.0117C149.038 22.0117 148.227 21.8936 147.511 21.6574C146.814 21.4211 146.201 21.116 145.673 20.7419C145.165 20.3482 144.731 19.9052 144.373 19.4131C144.015 18.9012 143.742 18.3893 143.553 17.8775L146.861 16.401C147.181 17.1491 147.605 17.7102 148.133 18.0842C148.68 18.4386 149.283 18.6157 149.943 18.6157C150.621 18.6157 151.158 18.4878 151.554 18.2319C151.95 17.9759 152.148 17.6708 152.148 17.3164C152.148 16.9227 151.978 16.6077 151.639 16.3714C151.319 16.1155 150.753 15.8891 149.943 15.6923L147.992 15.2493C147.558 15.1509 147.106 14.9934 146.635 14.7768C146.182 14.5603 145.768 14.2846 145.391 13.95C145.014 13.6153 144.703 13.2117 144.458 12.7392C144.213 12.2668 144.09 11.7155 144.09 11.0855C144.09 10.3768 144.232 9.74684 144.514 9.19561C144.816 8.64438 145.221 8.18174 145.73 7.80769C146.239 7.41396 146.833 7.11865 147.511 6.92179C148.209 6.70523 148.953 6.59695 149.745 6.59695C151.064 6.59695 152.242 6.87257 153.279 7.4238C154.315 7.95534 155.079 8.81172 155.569 9.99292L152.374 11.3513C152.11 10.7804 151.724 10.367 151.215 10.111C150.706 9.85512 150.197 9.72716 149.688 9.72716C149.16 9.72716 148.699 9.84528 148.303 10.0815C147.907 10.2981 147.709 10.5835 147.709 10.9379C147.709 11.2726 147.869 11.5383 148.19 11.7352C148.529 11.9321 148.981 12.1093 149.547 12.2668L151.667 12.7983C153.081 13.1527 154.127 13.7236 154.805 14.511C155.503 15.2788 155.852 16.1943 155.852 17.2574C155.852 17.8873 155.71 18.4878 155.427 19.0587C155.145 19.6296 154.74 20.1415 154.212 20.5943C153.703 21.0274 153.081 21.3719 152.346 21.6278C151.63 21.8838 150.828 22.0117 149.943 22.0117Z" fill="#2E566F"/>
</svg>
